<?xml version="1.0" encoding="UTF-8"?>
<svg width="400" height="400" viewBox="0 0 400 400" fill="none" xmlns="http://www.w3.org/2000/svg">
  <rect width="400" height="400" fill="#1E1E2E"/>
  <path d="M200 150C177.909 150 160 167.909 160 190C160 212.091 177.909 230 200 230C222.091 230 240 212.091 240 190C240 167.909 222.091 150 200 150ZM200 220C183.458 220 170 206.542 170 190C170 173.458 183.458 160 200 160C216.542 160 230 173.458 230 190C230 206.542 216.542 220 200 220Z" fill="#4B5563"/>
  <path d="M185 185H215V195H185V185Z" fill="#4B5563"/>
  <circle cx="200" cy="190" r="60" stroke="#4B5563" stroke-width="10"/>
  <text x="200" y="280" text-anchor="middle" font-family="Arial" font-size="24" fill="#4B5563">Image not available</text>
</svg>
